<svg id="Agrupar_1" data-name="Agrupar 1" xmlns="http://www.w3.org/2000/svg" width="876" height="787" viewBox="0 0 876 787">
  <defs>
    <style>
      .cls-1 {
        fill: #b2e6ff;
        opacity: 0.02;
      }

      .cls-1, .cls-2, .cls-3 {
        fill-rule: evenodd;
      }

      .cls-2 {
        fill: #0a8efd;
      }

      .cls-3 {
        fill: #5700ff;
      }
    </style>
  </defs>
  <path id="Forma_2" data-name="Forma 2" class="cls-1" d="M438.922,786.132L872.193,533.106s-49.645-36.9-120.855-80.235c-33.631-20.466-75.609-38.762-112.412-60.441C537.218,332.518,438.332,278.958,438.332,278.958s-273,150.736-387.177,219.061C19.761,516.8,8.012,537.046,8.012,537.046Z"/>
  <path id="Forma_2_copiar" data-name="Forma 2 copiar" class="cls-1" d="M438.922,588.93L872.193,335.905s-49.645-36.9-120.855-80.235c-33.631-20.467-75.609-38.762-112.412-60.441C537.218,135.316,438.332,81.756,438.332,81.756s-273,150.737-387.177,219.062C19.761,319.6,8.012,339.845,8.012,339.845Z"/>
  <path id="Forma_1" data-name="Forma 1" class="cls-2" d="M407.531,198.645v97.834L84.749,483.318,407.531,670.855v97.22L0.727,533.363V434.75l84.612-50.106L0.727,336.538v-99.2L407.531,1.229V99.441L85.339,286.633l85,49.6Zm0,274.794v97.22L254.91,483.679v-98.3Z"/>
  <path id="Forma_1_copiar" data-name="Forma 1 copiar" class="cls-3" d="M469.021,570.388V472.537L791.73,285.667,469.021,98.1V0.862L875.733,235.613v98.63L791.14,384.358l84.593,48.113v99.221L469.021,767.837V669.609L791.14,482.384l-84.982-49.6Zm0-274.841V198.311l152.587,86.994v98.314Z"/>
</svg>
